<svg width="940" height="877" viewBox="0 0 940 877" fill="none" xmlns="http://www.w3.org/2000/svg">
<path d="M903.501 720.334V755.835C759.101 738.235 606.334 779.168 548.001 801.835C662.401 724.635 832.667 714.001 903.501 720.334Z" fill="#838A2D" stroke="#838A2D"/>
<path d="M38.0006 721.335V755.835C169.201 734.235 328.667 776.835 392.001 800.835C252.001 718.435 97.6673 712.335 38.0006 721.335Z" fill="#838A2D" stroke="#838A2D"/>
<path d="M35.5006 292.835L1.00061 295.335L0.50061 793.835C181.301 767.435 344.167 814.501 403.001 841.335C460.601 903.335 516.667 867.168 537.501 841.335C699.101 774.135 872.834 781.668 939.501 793.835V295.335L903.501 290.835V753.335C757.501 733.335 598.667 778.335 537.501 803.335C630.701 711.735 781.334 692.835 845.001 694.835H882.001V209.835H845.001C733.801 211.835 643.001 250.001 611.501 268.835C638.301 268.035 667.667 274.501 679.001 277.835C729.401 256.635 810.667 247.668 845.001 245.835V657.835C663.401 653.035 532.334 748.501 489.501 796.835C487.101 796.835 475.167 808.168 469.501 813.835C459.901 803.435 451.834 797.501 449.001 795.835C345.001 681.435 170.334 655.835 96.0006 657.335V247.335H99.5006C267.101 250.535 385.667 338.668 424.001 382.335V334.835C327.201 237.635 167.334 211.001 99.5006 209.835H58.5006V695.335H106.001C266.001 697.735 370.667 768.335 403.001 803.335C257.801 742.935 98.5006 744.835 37.0006 753.335L35.5006 292.835Z" fill="#6A4028" stroke="#6A4028"/>
<path d="M451.501 374.835V796.335C454.301 797.535 464.667 807.835 469.501 812.835C475.501 806.035 485.334 799.001 489.501 796.335V322.335C501.101 173.535 611.667 95.0014 665.501 74.3347C573.501 149.135 543.834 213.835 540.501 236.835C724.901 246.435 760.667 83.5015 755.501 0.834856C531.101 -7.16514 487.667 130.168 494.001 199.835C480.001 210.835 466.501 263.835 466.501 262.835C466.501 262.035 456.501 240.835 451.501 230.335C451.257 121.135 343.732 101.835 290.001 105.835C287.201 236.235 375.834 262.168 420.501 258.835C417.701 232.035 375.667 182.001 355.001 160.335C433.401 200.735 453.334 285.168 453.501 322.335L451.501 374.835Z" fill="#838A2D" stroke="#838A2D"/>
<path d="M634.033 297.372C650.035 297.904 673.753 302.969 694.859 316.552C716.663 330.584 735.675 353.707 740.497 390.269L740.501 390.302V415.844C740.166 434.6 727.204 477.293 678.225 499.058C691.976 521.39 712.603 554.681 730.186 582.618C739.042 596.688 747.126 609.398 753.169 618.665C756.19 623.298 758.699 627.068 760.54 629.715C761.46 631.039 762.211 632.077 762.771 632.8C763.052 633.162 763.28 633.438 763.455 633.63C763.542 633.726 763.611 633.795 763.663 633.841C763.693 633.867 763.71 633.879 763.715 633.883L763.698 633.875C763.759 633.901 763.828 633.935 763.892 633.98C763.948 634.02 764.051 634.103 764.112 634.242C764.189 634.418 764.166 634.609 764.072 634.759C763.997 634.877 763.893 634.943 763.836 634.975C763.715 635.042 763.568 635.083 763.438 635.112C763.297 635.144 763.128 635.171 762.937 635.196C762.178 635.294 760.936 635.363 759.338 635.411C756.131 635.506 751.41 635.516 746.047 635.472C735.317 635.385 721.988 635.085 712.987 634.835H712.977L712.967 634.834C705.286 634.322 687.534 627.514 677.056 604.565C667.807 588.983 653.816 565.599 641.886 546.057C635.918 536.281 630.467 527.469 626.384 521.077C624.342 517.88 622.645 515.293 621.398 513.495C620.774 512.595 620.267 511.899 619.888 511.426C619.698 511.188 619.548 511.016 619.436 510.904C619.406 510.874 619.38 510.852 619.36 510.835H575.001V604.37L574.996 604.405C574.236 609.726 571.632 617.691 566.278 624.336C560.911 630.997 552.775 636.335 541.001 636.335H517.001V336.328C517.085 330.399 519.24 321.365 525.42 313.452C531.612 305.523 541.824 298.748 557.958 297.337L557.979 297.335H632.508L634.033 297.372ZM683.001 397.335C681.667 380.501 667.501 347.035 621.501 347.835H584.501C581.167 347.835 574.501 348.435 574.501 350.835V456.835C574.501 458.168 576.001 460.835 582.001 460.835H617.501C637.001 461.501 677.401 452.935 683.001 413.335V397.335Z" fill="#6A4028"/>
</svg>
