<svg xmlns="http://www.w3.org/2000/svg" height="24" viewBox="0 0 24 24" width="24">
  <path d="M15.5 14h-.79l-.28-.27C15.41 12.59 16 11.11 16 9.5 16 5.91 13.09 3 9.5 3S3 5.91 3 9.5 5.91 16 9.5 16c1.61 0 3.09-.59 4.23-1.57l.27.28v.79l5 4.99L20.49 19l-4.99-5zm-6 0C7.01 14 5 11.99 5 9.5S7.01 5 9.5 5 14 7.01 14 9.5 11.99 14 9.5 14zm-2.5-4H8v-1.5H7V10H5.5V8.5H7V7h1.5v1.5H10V10H7.5z"/>
  <path d="M2.81 2.81L1.39 4.22l3.5 3.5C4.18 8.45 4 8.97 4 9.5c0 3.04 2.46 5.5 5.5 5.5.53 0 1.05-.18 1.48-.39l3.5 3.5 1.41-1.41-3.5-3.5c.21-.43.39-.95.39-1.48 0-3.04-2.46-5.5-5.5-5.5-.53 0-1.05.18-1.48.39L2.81 2.81z"/>
</svg>

